<?xml version="1.0" standalone="no"?>
<!DOCTYPE svg PUBLIC "-//W3C//DTD SVG 20010904//EN"
 "http://www.w3.org/TR/2001/REC-SVG-20010904/DTD/svg10.dtd">
<svg version="1.0" xmlns="http://www.w3.org/2000/svg"
 width="750.000000pt" height="928.000000pt" viewBox="0 0 750.000000 928.000000"
 preserveAspectRatio="xMidYMid meet">
<metadata>
Created by potrace 1.16, written by Peter Selinger 2001-2019
</metadata>
<g transform="translate(0.000000,928.000000) scale(0.100000,-0.100000)"
fill="#000000" stroke="none">
<path d="M6515 9147 c-30 -4 -63 -18 -79 -32 -16 -14 -32 -22 -36 -20 -14 9
-16 -16 -6 -59 7 -31 20 -49 52 -74 24 -17 48 -32 54 -32 5 0 10 -4 10 -10 0
-13 46 -13 70 0 23 12 43 94 38 160 -5 65 -28 80 -103 67z"/>
<path d="M4156 8906 c-53 -20 -88 -47 -105 -81 -13 -26 -12 -33 9 -71 12 -24
21 -46 20 -50 -1 -4 3 -10 9 -14 19 -11 51 -118 51 -170 0 -86 -25 -116 -140
-165 -25 -10 -63 -32 -85 -47 -22 -15 -54 -30 -72 -34 -29 -6 -32 -3 -48 32
-9 22 -21 47 -26 56 -5 10 -9 26 -9 36 0 10 -13 46 -30 80 -16 34 -30 65 -30
68 0 14 -169 162 -207 182 -28 16 -78 15 -105 0 -59 -35 -100 -99 -193 -303
-28 -59 -117 -179 -165 -222 -27 -24 -80 -31 -80 -10 0 7 -8 29 -19 49 -10 21
-26 60 -35 88 -24 74 -70 153 -95 166 -12 6 -31 21 -41 32 -27 29 -131 57
-115 32 3 -6 -1 -7 -9 -4 -10 4 -16 1 -16 -8 0 -8 -11 -20 -24 -26 -13 -6 -27
-21 -31 -33 -18 -56 -125 -125 -174 -112 -13 3 -21 1 -21 -6 0 -7 -5 -9 -10
-6 -6 4 -26 -10 -45 -30 -34 -35 -41 -59 -35 -122 1 -13 -4 -47 -10 -77 -8
-41 -16 -56 -36 -65 -32 -14 -71 -13 -106 2 -35 15 -138 106 -138 121 0 6 -12
23 -27 37 -37 33 -60 63 -67 86 -3 10 -19 33 -36 51 -28 31 -29 32 -40 12 -6
-11 -16 -17 -22 -14 -6 4 -9 3 -6 -2 3 -5 2 -18 -2 -28 -4 -11 1 -46 12 -79
36 -117 18 -284 -40 -372 -34 -50 -55 -68 -112 -97 -40 -19 -56 -21 -150 -17
-191 8 -363 2 -452 -15 -48 -9 -159 -20 -246 -24 -154 -7 -159 -8 -203 -38
-86 -58 -197 -67 -298 -23 -24 11 -81 43 -125 73 -93 61 -111 71 -148 80 l-28
6 0 -213 0 -214 67 -12 c146 -27 252 -105 296 -218 15 -38 27 -75 27 -83 0
-28 47 -115 79 -146 17 -17 71 -57 119 -90 48 -32 89 -61 92 -64 28 -30 166
-133 205 -153 63 -32 110 -71 133 -111 26 -44 45 -132 36 -164 -4 -15 -7 -29
-6 -32 1 -8 -86 -89 -91 -84 -2 3 -29 0 -58 -5 -171 -31 -186 -37 -192 -74 -5
-35 24 -91 54 -108 11 -5 19 -15 19 -22 0 -7 8 -22 18 -33 55 -60 84 -153 85
-268 1 -70 -3 -91 -31 -153 -18 -40 -32 -78 -32 -86 0 -17 27 -47 57 -64 27
-15 134 -43 165 -43 14 0 34 -10 45 -22 21 -24 58 -152 48 -168 -3 -5 -1 -11
5 -15 6 -4 8 -11 5 -16 -4 -5 0 -9 7 -9 11 0 11 -2 0 -9 -16 -10 -42 -58 -42
-77 0 -8 -8 -26 -17 -40 -14 -22 -14 -29 -4 -46 11 -18 9 -24 -17 -47 -31 -29
-51 -81 -30 -81 6 0 2 -9 -10 -21 -12 -11 -27 -17 -33 -13 -6 3 -10 -1 -9 -12
4 -34 -11 -60 -39 -71 -21 -8 -31 -21 -41 -56 -7 -26 -16 -47 -19 -47 -12 0 1
-84 19 -115 9 -16 20 -51 24 -77 5 -34 12 -49 26 -53 19 -6 19 -7 -3 -38 -54
-78 -96 -83 -154 -21 -31 32 -40 65 -35 124 1 8 -5 33 -13 56 l-16 41 -57 2
c-83 2 -161 -22 -297 -91 -115 -59 -123 -61 -185 -59 -94 4 -120 4 -162 3
l-38 -2 0 -85 c0 -82 1 -85 23 -85 13 0 27 4 32 8 10 8 85 37 152 59 25 9 35
8 44 -3 6 -8 15 -12 19 -9 14 9 59 -62 70 -110 18 -79 -4 -151 -60 -199 -43
-36 -91 -46 -192 -40 l-88 5 0 -90 0 -90 43 -11 c23 -6 68 -20 100 -32 87 -30
130 -32 205 -9 84 25 96 27 155 17 37 -6 57 -16 86 -45 41 -41 71 -93 71 -122
0 -10 4 -21 10 -24 21 -13 2 -115 -22 -115 -4 0 -8 -7 -8 -16 0 -8 -4 -13 -9
-10 -7 5 -28 -38 -72 -149 -15 -36 -16 -41 -18 -60 0 -9 -16 -31 -34 -50 -25
-26 -45 -35 -92 -44 -73 -12 -232 -18 -241 -8 -13 12 -54 7 -60 -7 -7 -18 12
-56 28 -56 6 0 21 -10 34 -22 12 -13 29 -29 36 -35 7 -7 46 -47 87 -88 65 -66
78 -75 110 -75 21 0 44 6 53 13 20 16 62 78 64 94 3 19 48 93 76 126 24 28
198 97 245 97 30 0 100 28 138 54 16 12 45 26 64 33 29 10 38 9 70 -9 48 -27
91 -64 84 -72 -4 -3 -2 -6 3 -6 21 -1 47 -31 50 -59 4 -37 -12 -85 -26 -76 -6
4 -28 -9 -50 -27 -27 -24 -64 -41 -122 -58 -103 -29 -164 -62 -289 -159 -15
-11 -61 -32 -103 -45 -42 -14 -83 -32 -90 -39 -8 -7 -21 -40 -29 -72 -13 -50
-13 -61 -1 -73 30 -29 17 -49 -56 -84 -66 -31 -141 -33 -186 -3 -16 11 -33 20
-39 20 -5 1 -18 5 -28 9 -24 11 -84 1 -102 -18 -9 -8 -32 -18 -53 -21 -89 -15
-82 -5 -82 -105 0 -89 0 -90 24 -90 28 0 126 -89 126 -114 0 -9 5 -16 11 -16
5 0 8 -4 5 -8 -8 -13 41 -80 64 -87 44 -14 118 7 211 59 136 76 177 90 243 82
45 -6 60 -13 82 -39 20 -24 24 -37 19 -61 -14 -72 -17 -114 -7 -120 15 -9 44
72 37 106 -4 17 -2 35 5 43 6 8 9 19 5 25 -3 5 -1 10 5 10 6 0 8 5 4 11 -4 8
0 8 15 0 15 -8 21 -9 21 -1 0 6 5 8 10 5 6 -4 8 -11 4 -16 -3 -5 0 -8 8 -7 7
2 12 -5 11 -15 0 -11 4 -16 11 -14 13 5 41 -31 32 -40 -2 -3 2 -23 10 -45 8
-22 14 -44 14 -49 0 -18 -31 -8 -65 22 -19 17 -35 28 -35 23 0 -4 -9 1 -20 11
-19 17 -20 17 -21 -1 -5 -95 -2 -174 5 -174 4 0 6 -7 2 -15 -3 -8 -1 -15 4
-15 5 0 7 -7 4 -15 -4 -8 -1 -15 5 -15 6 0 11 -7 11 -15 0 -8 -6 -15 -14 -15
-8 0 -17 -10 -19 -22 -3 -17 -5 -14 -6 9 -1 27 2 31 17 27 14 -5 14 -4 2 4
-17 13 -44 -4 -33 -21 3 -5 0 -15 -8 -21 -21 -16 -43 -96 -30 -109 7 -7 6 -14
-4 -21 -8 -6 -17 -24 -21 -41 -7 -27 -6 -29 10 -16 9 8 20 11 24 7 6 -7 -13
-26 -45 -44 -17 -10 -4 -55 13 -48 8 3 20 3 28 0 12 -5 11 -12 -6 -40 -11 -19
-24 -34 -29 -34 -12 0 -11 14 2 27 16 16 1 37 -16 23 -7 -6 -19 -9 -25 -8 -7
2 -17 -11 -22 -29 -5 -19 -13 -30 -21 -28 -8 4 -12 -9 -13 -42 -2 -64 -10
-122 -17 -130 -4 -3 -2 -14 4 -25 7 -14 6 -27 -5 -50 -11 -21 -13 -35 -6 -43
6 -7 7 -20 4 -30 -5 -11 -9 -13 -14 -5 -4 6 -12 -14 -19 -44 -7 -30 -19 -57
-27 -60 -8 -3 -12 -11 -9 -16 4 -6 2 -16 -4 -23 -5 -7 -8 -25 -7 -40 2 -17 -2
-27 -9 -27 -12 0 -25 -56 -25 -109 0 -13 -4 -29 -9 -35 -20 -26 -20 -62 -1
-79 21 -18 26 -37 10 -37 -5 0 -10 5 -10 11 0 5 -4 8 -9 5 -4 -3 -6 -17 -4
-30 4 -17 10 -23 20 -19 13 5 13 2 4 -15 -6 -11 -19 -23 -29 -27 -11 -3 -24
-17 -30 -30 -16 -34 -31 -31 -27 5 3 20 0 30 -9 30 -14 0 -17 52 -4 65 4 4 4
20 1 36 -3 16 -1 29 4 29 9 0 10 4 15 70 2 21 13 45 27 59 28 28 51 81 51 116
0 34 -12 26 -36 -24 -10 -23 -22 -41 -25 -41 -3 0 -15 -9 -28 -21 -15 -14 -30
-19 -46 -15 -12 3 -36 -1 -51 -9 -16 -8 -34 -15 -41 -15 -7 0 -29 -16 -50 -35
-21 -19 -55 -40 -75 -46 -21 -5 -38 -14 -38 -18 0 -5 -27 -14 -60 -22 l-60
-13 0 -303 0 -303 2220 0 c1221 0 2220 3 2220 8 0 4 -11 43 -25 87 -14 44 -34
127 -46 185 -19 98 -154 539 -168 550 -3 3 -24 29 -46 57 -21 29 -43 53 -48
53 -4 0 -6 4 -3 8 3 5 -7 24 -23 43 -15 19 -49 68 -76 109 -27 41 -53 78 -59
82 -6 4 -7 8 -3 8 5 0 -7 21 -26 47 -19 27 -62 93 -94 148 -33 55 -105 174
-160 265 -183 302 -359 634 -369 697 -5 34 -1 49 22 89 15 27 33 52 38 56 7 4
1 17 -14 33 -27 29 -34 56 -17 67 24 15 78 7 117 -17 22 -14 44 -25 50 -25 9
0 15 -22 11 -44 -2 -11 31 -35 50 -36 8 0 25 -9 36 -20 12 -10 34 -19 50 -19
51 2 145 -10 156 -20 16 -12 169 -12 184 1 7 5 21 7 32 3 10 -3 22 -2 25 3 3
5 29 9 58 11 29 1 55 6 56 12 2 5 9 9 16 9 7 0 26 13 42 29 27 27 37 30 96 30
36 0 88 -6 115 -13 48 -13 103 -53 103 -75 0 -6 4 -11 9 -11 5 0 6 -20 3 -45
-3 -28 0 -50 8 -60 10 -13 10 -19 -4 -33 -21 -24 -22 -102 -1 -102 8 0 17 -11
21 -25 3 -14 10 -25 14 -25 8 0 24 -35 25 -55 0 -5 7 -10 15 -11 35 -2 38 -5
33 -26 -3 -13 -2 -20 2 -15 12 10 44 -42 38 -62 -4 -13 -3 -14 5 -2 9 12 14
12 36 -3 14 -9 26 -22 26 -29 0 -7 8 -22 18 -33 27 -30 65 -120 57 -134 -6 -9
0 -12 23 -8 l30 4 -4 -70 c-12 -191 -25 -394 -34 -516 -15 -211 -30 -554 -30
-685 0 -66 -7 -183 -15 -260 -8 -77 -15 -157 -15 -177 l0 -38 1200 0 c1029 0
1200 2 1200 14 0 17 -38 108 -48 116 -11 8 -54 90 -87 165 -10 22 -22 48 -26
57 -5 10 -9 28 -9 40 0 38 -86 258 -101 258 -4 0 -10 11 -13 24 -3 13 -20 39
-38 57 -18 19 -41 50 -52 69 -20 37 -27 112 -12 143 6 12 4 17 -8 17 -9 0 -16
5 -16 10 0 6 4 10 8 10 7 0 8 40 3 102 0 9 -8 23 -16 31 -8 8 -20 48 -26 89
-6 40 -26 165 -45 278 -33 201 -35 207 -89 315 -30 60 -55 117 -55 127 0 9 -4
19 -9 22 -4 3 -11 19 -14 36 -4 17 -18 56 -33 88 -14 31 -33 75 -42 97 -8 22
-19 44 -24 49 -4 6 -8 18 -8 27 0 19 -99 133 -108 124 -7 -6 -53 62 -89 130
-38 71 -39 190 -3 262 35 72 87 101 190 110 118 9 132 23 185 173 14 41 31 86
38 99 20 41 15 188 -10 256 -21 60 -26 147 -9 173 4 7 5 16 2 19 -3 3 6 25 19
49 14 24 22 44 19 44 -4 0 -1 6 5 13 6 8 8 16 5 20 -3 3 3 12 15 19 12 7 21
17 21 22 0 5 9 20 21 32 28 30 50 95 37 111 -5 7 -7 16 -4 21 3 5 -3 17 -14
27 -11 10 -20 22 -20 27 0 5 -11 26 -25 49 -14 22 -30 59 -35 82 -36 169 -66
212 -179 252 -103 36 -166 11 -200 -81 -36 -94 -25 -164 33 -214 29 -25 152
-90 171 -90 24 -1 72 -58 84 -101 12 -42 11 -49 -6 -70 -31 -39 -58 -62 -119
-106 -32 -23 -70 -53 -84 -65 -45 -42 -142 -118 -150 -118 -4 0 -25 -14 -46
-31 -60 -48 -163 -93 -208 -92 -56 1 -87 38 -81 96 4 45 43 136 76 177 14 18
26 64 40 155 21 136 20 194 -7 273 -8 23 -14 61 -14 83 0 51 -25 139 -58 204
-48 96 -62 155 -52 222 4 33 13 70 19 81 27 50 118 92 238 111 93 14 120 27
133 64 21 62 13 120 -31 204 -23 43 -48 85 -55 94 -8 9 -11 19 -7 24 5 4 3 5
-4 1 -6 -3 -21 7 -33 24 -12 16 -28 30 -37 30 -8 0 -25 8 -38 18 -12 9 -33 24
-46 32 -60 39 -113 116 -133 193 -12 46 -12 54 3 71 25 29 120 16 319 -43 30
-9 114 -7 131 3 4 3 20 23 36 45 23 35 26 47 21 83 -6 41 -11 46 -89 95 -45
29 -118 84 -161 123 -43 38 -85 70 -92 70 -7 0 -20 7 -29 16 -15 16 -22 14
-99 -25 -46 -22 -90 -41 -98 -41 -8 0 -27 14 -43 31 -21 24 -28 44 -30 78 -1
25 0 52 3 59 6 16 122 13 129 -4 5 -14 76 -33 118 -30 17 0 37 8 46 16 49 44
70 61 129 104 102 75 144 90 307 111 68 8 173 70 173 101 0 11 -49 53 -80 69
-37 19 -108 43 -141 47 -27 3 -84 -31 -142 -83 -16 -15 -41 -33 -55 -40 -15
-7 -35 -20 -44 -28 -10 -8 -18 -11 -18 -7 0 4 -8 2 -19 -3 -10 -6 -75 -26
-144 -44 -150 -41 -199 -63 -223 -99 -16 -24 -26 -28 -65 -28 -31 0 -55 7 -72
20 -14 11 -29 20 -35 20 -5 0 -30 20 -55 45 -26 25 -50 45 -55 45 -4 0 -15 -9
-25 -20 -17 -20 -43 -28 -32 -10 3 6 1 10 -4 10 -6 0 -11 5 -11 10 0 6 3 9 8
9 18 -3 30 2 36 16 3 9 1 15 -7 14 -25 -3 -38 1 -32 11 3 5 0 7 -8 4 -10 -3
-16 5 -21 26 -7 35 -25 36 -41 2 -11 -25 -25 -29 -25 -7 0 8 4 15 10 15 5 0
12 16 16 35 3 19 10 32 15 29 14 -8 10 49 -5 68 -10 14 -15 15 -25 5 -11 -10
-12 -8 -7 9 5 17 0 24 -24 34 -17 7 -33 10 -37 7 -3 -4 3 -10 13 -14 21 -7 34
-22 34 -38 0 -5 -5 -3 -10 5 -7 12 -12 12 -22 2 -16 -16 -29 -15 -22 1 2 7 -6
25 -20 40 -14 15 -26 22 -28 15 -2 -6 -13 -13 -24 -15 -48 -9 -59 -7 -59 7 0
8 7 15 15 14 8 0 23 7 32 15 16 16 16 18 -4 30 -19 12 -20 11 -14 -6 4 -10 -4
-5 -18 12 -15 18 -23 37 -20 48 3 10 2 17 -3 16 -20 -3 -27 2 -13 11 13 8 12
10 -2 10 -10 0 -18 5 -18 10 0 6 -3 9 -7 9 -21 -3 -29 3 -30 23 -1 11 -7 24
-13 28 -7 4 -12 10 -12 13 0 20 -12 47 -20 47 -6 0 -8 7 -4 15 8 22 -24 83
-46 89 -16 4 -19 1 -15 -14 3 -13 0 -17 -9 -13 -8 3 -14 10 -14 17 0 6 -4 5
-9 -4 -6 -8 -7 -18 -4 -23 6 -11 -37 -58 -48 -52 -4 3 -10 1 -14 -5 -11 -17
-25 -11 -25 10 0 11 7 23 15 26 10 4 14 17 12 39 -1 18 -6 31 -10 28 -5 -3 -6
-17 -3 -32 3 -14 3 -20 0 -13 -3 6 -12 12 -20 12 -8 0 -14 5 -14 10 0 6 5 10
10 10 6 0 10 6 10 14 0 15 -29 15 -64 1 -11 -5 -21 -3 -26 6 -7 11 -10 10 -15
-3 -9 -24 4 -41 26 -35 11 3 19 1 19 -5 0 -5 4 -6 10 -3 6 3 7 -1 4 -9 -4 -10
-1 -16 9 -16 8 0 17 -9 20 -20 3 -11 1 -20 -4 -20 -5 0 -9 6 -9 13 -1 15 -76
51 -90 42 -5 -3 -10 -2 -10 3 0 6 -6 12 -14 15 -9 4 -12 -2 -10 -19 1 -13 -2
-26 -6 -29 -5 -3 -7 3 -5 15 2 11 0 22 -6 25 -5 4 -9 17 -9 31 0 14 -4 23 -9
19 -17 -10 -21 12 -5 31 14 17 15 17 10 2 -3 -10 -1 -18 4 -18 6 0 10 4 10 8
0 5 13 7 29 4 16 -2 32 1 35 7 4 6 2 12 -3 12 -50 6 -74 9 -95 11 -17 1 -22 7
-19 23 3 15 0 13 -12 -7 -18 -31 -31 -39 -15 -9 15 29 12 39 -5 17 -12 -16
-18 -17 -27 -8 -9 9 -9 12 0 12 7 0 12 4 12 9 0 12 -59 20 -66 9 -9 -15 -49
-8 -66 11 -9 11 -14 22 -11 25 7 7 -10 9 -51 6 -21 -1 -26 2 -20 12 6 10 4 10
-9 -1 -19 -15 -23 -26 -5 -15 7 4 8 3 4 -4 -4 -6 -13 -9 -21 -5 -9 3 -15 -1
-15 -10 0 -8 -7 -17 -15 -21 -8 -3 -15 -10 -15 -16 0 -6 5 -8 10 -5 6 3 10 1
10 -4 0 -6 -8 -11 -18 -11 -26 0 -51 -35 -45 -62 3 -16 2 -19 -4 -10 -5 7 -17
10 -26 6 -10 -3 -17 -1 -17 6 0 6 -4 8 -10 5 -5 -3 -10 -2 -10 3 0 6 14 15 30
21 24 8 30 16 30 38 0 15 5 35 10 43 8 12 10 12 10 1 0 -11 4 -10 19 3 15 13
20 14 24 4 4 -9 6 -8 6 4 1 21 -27 27 -58 12 -13 -7 -35 -10 -48 -8 -25 5 -25
3 -19 -35 3 -23 2 -42 -4 -46 -5 -3 -10 0 -11 7 0 7 -4 4 -9 -7 -7 -18 -8 -19
-15 -2 -4 9 -12 17 -18 17 -6 0 -8 -3 -4 -6 9 -10 -16 -32 -30 -27 -7 3 -13
11 -13 18 0 8 -9 17 -20 20 -11 3 -20 11 -20 17 0 5 -7 7 -16 4 -12 -4 -15 -2
-10 9 6 16 4 18 -16 10 -9 -4 -12 -18 -10 -44 3 -30 0 -38 -13 -38 -10 0 -14
6 -10 16 3 11 0 9 -11 -4 -16 -19 -16 -19 -12 14 l5 33 -19 -23 c-14 -17 -18
-19 -14 -6 3 9 1 17 -4 17 -6 0 -10 -7 -10 -15 0 -8 -5 -15 -11 -15 -6 0 -9
-6 -6 -14 7 -19 -22 -30 -39 -15 -11 9 -14 6 -14 -19 0 -26 -3 -29 -22 -25
-13 3 -29 11 -37 17 -12 9 -13 6 -7 -19 l8 -30 -25 23 c-22 21 -26 22 -40 8
-11 -12 -16 -13 -20 -3 -2 6 3 17 11 23 13 9 12 14 -8 34 -18 18 -22 19 -17 5
4 -9 2 -24 -5 -33 -11 -13 -14 -11 -19 9 -6 21 -7 20 -8 -8 -1 -37 -21 -56
-21 -20 0 17 -7 26 -21 30 -17 5 -20 2 -16 -15 3 -11 3 -17 0 -14 -4 3 -12 1
-19 -5 -10 -8 -11 -5 -7 12 5 18 3 20 -17 14 -15 -5 -25 -2 -31 6 -6 10 -9 11
-9 2 0 -7 -9 -13 -20 -13 -11 0 -20 -4 -20 -10 0 -5 -5 -10 -11 -10 -5 0 -7 5
-4 10 4 7 -7 9 -29 6 -31 -4 -37 -1 -42 20 -8 32 -15 30 -39 -9 -21 -35 -33
-61 -16 -37 15 22 26 3 13 -25 -15 -32 -32 -32 -32 -1 0 14 -9 31 -20 39 -11
8 -19 16 -17 18 1 2 -3 -2 -10 -10 -7 -8 -10 -19 -6 -24 3 -6 7 -24 7 -40 1
-34 -56 -103 -75 -91 -7 4 -9 3 -6 -3 5 -8 -12 -23 -26 -23 -1 0 0 25 1 56 3
39 1 54 -7 50 -15 -10 -14 17 1 32 9 9 9 12 0 12 -7 0 -12 -4 -12 -10 0 -5 -4
-10 -10 -10 -18 0 -10 31 15 55 13 14 19 25 14 25 -6 0 -8 9 -4 20 8 24 -2 60
-16 60 -6 0 -7 -4 -4 -10 3 -5 -1 -10 -10 -10 -8 0 -19 -8 -22 -17 -4 -10 -11
-21 -17 -25 -7 -5 -4 -8 7 -8 10 0 21 10 26 22 10 27 25 7 16 -21 -4 -13 -13
-18 -27 -16 -16 3 -19 0 -15 -15 3 -11 1 -20 -4 -20 -5 0 -9 6 -9 13 0 9 -3 8
-9 -2 -6 -9 -11 -10 -15 -2 -10 15 -41 14 -54 -2 -12 -15 19 -50 56 -61 28 -9
29 2 1 12 -20 8 -20 9 -3 23 11 8 15 9 10 2 -4 -8 -1 -13 8 -13 21 0 20 -19
-1 -40 -14 -12 -22 -14 -40 -6 -13 6 -21 16 -18 23 3 9 -8 11 -38 8 -23 -2
-43 -9 -45 -15 -4 -12 -22 -3 -22 11 0 6 4 8 9 5 5 -3 11 3 14 15 5 17 3 18
-10 7 -15 -12 -16 -10 -9 17 6 30 6 30 -11 9 -10 -12 -35 -24 -55 -27 -33 -5
-38 -3 -38 14 0 25 -17 25 -25 0 -3 -11 -14 -23 -25 -26 -10 -3 -21 -13 -24
-21 -3 -8 -2 -13 3 -10 5 3 11 -5 13 -19 7 -36 -19 -32 -27 4 -5 22 -11 28
-23 24 -13 -4 -12 -2 3 11 20 16 20 16 1 31 -11 8 -23 15 -27 15 -11 0 -19
-45 -9 -48 18 -6 10 -32 -9 -32 -10 0 -21 -6 -24 -14 -5 -12 -2 -12 21 0 37
19 39 18 44 -20 3 -29 1 -33 -19 -33 -13 0 -26 4 -29 9 -3 5 -13 0 -21 -12
-13 -18 -13 -24 1 -45 21 -32 21 -52 0 -34 -13 11 -19 8 -39 -15 -31 -36 -50
-31 -30 8 16 30 11 52 -6 26 -8 -13 -10 -13 -18 -1 -12 19 -57 23 -72 5 -12
-14 -3 -19 30 -15 7 2 10 -3 6 -9 -4 -6 -13 -9 -20 -6 -26 10 -46 -18 -47 -64
-1 -65 -15 -99 -39 -93 -20 5 -27 23 -9 23 6 0 10 7 10 15 0 10 -10 15 -30 15
-19 0 -30 -5 -30 -14 0 -23 -24 -37 -39 -23 -11 9 -15 9 -18 -1 -4 -10 -9 -8
-19 7 -15 20 -15 20 -34 1 -11 -11 -26 -17 -35 -14 -18 7 -20 50 -2 61 6 4 12
13 13 18 1 29 18 65 30 65 15 0 19 22 7 34 -4 4 -6 39 -5 79 2 59 -1 78 -18
106 -19 31 -24 33 -58 26 -20 -3 -68 -20 -107 -37 -38 -17 -81 -35 -95 -40
-14 -6 -33 -15 -43 -20 -174 -89 -177 -90 -212 -84 -26 5 -44 18 -65 48 -17
23 -30 49 -30 58 0 61 -63 131 -130 145 -45 9 -86 31 -93 48 -5 14 37 109 60
136 8 9 28 38 46 66 18 27 52 64 77 83 115 84 185 167 250 295 31 60 101 134
143 152 46 19 113 17 177 -5 68 -23 263 -122 309 -157 51 -39 75 -102 66 -177
-3 -34 -7 -80 -9 -104 l-3 -42 36 6 c32 6 226 95 275 127 19 11 72 58 155 134
72 67 177 78 240 25 25 -21 34 -38 40 -79 4 -28 15 -63 24 -76 32 -49 109 -43
220 18 87 47 144 60 204 46 27 -7 59 -21 73 -31 154 -120 183 -136 299 -161
47 -10 117 -28 155 -39 83 -26 109 -23 224 32 148 70 192 64 277 -41 78 -98
93 -113 170 -172 39 -29 80 -64 93 -77 19 -20 28 -23 65 -17 23 4 78 24 122
45 110 52 154 69 195 74 50 5 64 12 171 83 117 77 163 97 202 89 45 -9 57 -24
57 -73 0 -36 -9 -58 -43 -112 -73 -112 -152 -158 -252 -148 -57 6 -67 2 -83
-29 -15 -29 26 -86 79 -109 21 -10 39 -21 39 -25 0 -4 15 -7 33 -6 36 3 79
-13 71 -25 -3 -5 2 -9 10 -9 10 0 16 -9 16 -22 0 -16 3 -19 8 -10 9 13 115 18
419 21 168 1 173 4 173 89 0 31 6 86 12 122 15 86 13 151 -6 187 -8 16 -44 58
-80 93 -67 65 -106 127 -106 169 0 51 25 104 69 148 34 33 89 66 211 125 91
45 167 84 170 87 3 3 17 12 33 20 15 8 27 19 27 26 0 15 -75 87 -82 80 -3 -4
-18 9 -32 28 -32 42 -34 94 -7 204 45 183 46 199 23 329 -11 67 -34 90 -102
102 -54 10 -111 2 -218 -30 -22 -6 -37 -6 -45 1 -8 6 -18 6 -27 1 -8 -6 -18
-10 -21 -10 -17 0 -18 58 -3 131 15 73 13 126 -4 139 -4 3 -15 22 -24 42 -15
32 -25 39 -74 54 -48 14 -72 14 -119 1 -5 -2 -20 -8 -32 -15 -12 -7 -29 -12
-37 -12 -9 0 -16 -4 -16 -10 0 -5 -22 -33 -50 -61 -27 -28 -50 -55 -50 -60 0
-4 -18 -13 -40 -19 -21 -6 -42 -15 -45 -21 -4 -5 -14 -9 -23 -7 -24 4 -81 -21
-124 -55 -21 -16 -38 -25 -38 -20 0 4 -5 1 -10 -8 -13 -22 -78 -56 -122 -64
-25 -5 -58 1 -114 20 -43 15 -81 30 -84 34 -9 15 -105 69 -144 81 -32 10 -40
10 -47 -1 -8 -12 -11 -12 -18 1 -9 13 -12 12 -28 -2 -74 -68 -70 -66 -112 -58
-42 7 -86 45 -108 91 -20 45 -134 158 -205 206 -61 40 -80 47 -127 50 -32 2
-73 -3 -95 -11z m620 -723 c53 -34 114 -156 114 -228 0 -44 -21 -85 -45 -86
-11 -1 -27 -3 -35 -4 -27 -3 -84 36 -116 78 -92 125 -80 256 24 257 18 0 44
-7 58 -17z m1125 -107 c105 -44 133 -195 50 -270 -53 -48 -156 -58 -241 -23
-59 24 -80 51 -80 103 0 78 130 198 221 203 9 1 32 -5 50 -13z m-2196 -235
c17 -10 30 -22 31 -27 0 -5 4 -17 9 -27 4 -10 3 -36 -4 -57 -10 -33 -17 -40
-45 -45 -50 -10 -116 34 -116 76 0 42 16 68 53 84 39 17 35 17 72 -4z m-29
-1487 c-5 -13 -3 -14 7 -6 7 6 18 8 25 4 14 -10 85 -8 101 2 13 9 109 -11 128
-26 7 -5 21 -7 33 -3 12 4 27 1 35 -5 8 -7 24 -10 35 -7 11 3 27 -1 35 -9 9
-9 16 -10 20 -4 7 11 35 -12 35 -29 0 -5 9 -13 20 -16 11 -3 20 -13 20 -21 0
-8 6 -14 14 -14 8 0 21 -6 28 -14 8 -7 28 -17 44 -20 31 -7 88 -49 78 -59 -3
-3 5 -13 19 -22 16 -10 23 -22 20 -34 -3 -10 0 -22 6 -25 7 -5 8 -1 4 11 -4
14 -3 15 6 7 13 -12 22 -76 26 -189 7 -156 13 -219 24 -223 6 -2 11 -19 11
-37 0 -19 6 -40 14 -48 8 -8 12 -24 9 -42 -5 -21 -3 -26 7 -20 10 6 12 3 8
-13 -4 -12 -2 -25 3 -28 16 -10 9 -36 -11 -41 -11 -3 -20 -9 -20 -14 0 -5 -13
-9 -29 -9 -17 0 -32 -4 -35 -9 -3 -4 -16 -6 -28 -4 -13 2 -68 -3 -123 -12 -55
-8 -119 -15 -143 -15 -58 1 -85 -8 -78 -27 4 -11 1 -13 -14 -8 -12 4 -20 2
-20 -5 0 -8 -12 -10 -40 -5 -34 6 -44 3 -80 -26 -31 -25 -40 -39 -38 -58 3
-22 -1 -26 -22 -26 -16 0 -29 8 -37 25 -7 14 -17 25 -23 25 -6 0 -14 5 -18 11
-4 6 -14 14 -22 17 -11 4 -10 6 5 6 18 1 18 2 -4 18 -22 15 -25 15 -37 -1 -12
-16 -13 -16 -25 6 -21 40 -48 61 -64 48 -7 -6 -24 -8 -37 -5 -12 3 -50 8 -83
10 -33 2 -79 6 -102 9 -24 3 -43 1 -43 -4 0 -4 -21 -2 -46 6 -26 7 -49 12 -53
10 -13 -8 -142 -16 -153 -10 -9 6 -67 9 -93 5 -3 -1 -1 -11 6 -22 6 -12 7 -19
2 -16 -16 10 -53 -12 -53 -33 0 -11 5 -20 10 -20 6 0 10 -4 10 -8 0 -5 -14 -9
-30 -9 -17 0 -26 4 -19 8 6 3 10 12 8 18 -3 7 -13 -2 -23 -20 l-18 -31 74 7
c60 6 76 4 87 -8 9 -12 10 -21 1 -36 -7 -14 -7 -21 0 -21 5 0 10 -4 10 -10 0
-5 -13 -10 -29 -10 -15 0 -40 -9 -55 -21 -16 -12 -33 -18 -45 -14 -12 3 -23 0
-28 -9 -5 -8 -28 -15 -57 -17 -46 -4 -50 -2 -57 24 -4 16 -3 27 3 27 5 0 7 9
3 19 -6 21 18 51 40 51 9 0 12 6 9 15 -7 17 -34 21 -34 4 0 -5 -4 -7 -10 -4
-5 3 -10 -2 -10 -12 0 -15 -2 -16 -11 -3 -7 11 -9 7 -8 -20 2 -56 0 -60 -24
-60 -14 0 -24 -6 -24 -15 0 -8 7 -15 16 -15 11 0 10 -3 -5 -15 -10 -8 -14 -15
-9 -15 6 0 11 -21 12 -46 1 -25 7 -52 13 -60 7 -8 9 -14 6 -14 -4 0 -2 -9 4
-20 6 -11 15 -18 20 -15 5 3 11 1 15 -5 3 -5 1 -10 -6 -10 -6 0 0 -9 15 -21
14 -11 24 -25 21 -30 -8 -12 7 -11 40 1 15 6 24 6 20 1 -3 -6 18 -8 51 -6 64
3 118 -11 110 -30 -2 -7 1 -18 7 -25 10 -10 6 -11 -15 -6 -74 17 -79 14 -23
-13 l60 -29 -50 -14 c-55 -17 -54 -17 53 -38 34 -7 62 -16 62 -21 0 -4 15 -11
33 -14 17 -4 37 -11 42 -15 18 -12 148 -9 197 5 26 7 63 25 83 38 49 33 115
96 115 108 0 6 13 28 28 48 16 20 32 44 35 54 5 13 13 16 34 11 17 -3 23 -2
16 3 -10 7 -8 13 5 24 10 8 23 14 30 11 7 -2 12 6 12 20 0 18 2 20 9 9 8 -12
12 -12 24 -2 12 10 20 10 36 -1 12 -7 21 -16 21 -20 0 -17 4 -23 18 -34 8 -6
12 -16 8 -22 -4 -7 -3 -12 2 -12 5 0 12 -8 16 -17 13 -42 116 -147 164 -170
45 -20 205 -74 235 -78 15 -2 32 -7 37 -10 6 -3 44 -6 85 -6 93 0 115 -17 113
-86 0 -25 5 -50 11 -56 18 -18 13 -45 -11 -59 -13 -7 -26 -11 -30 -10 -5 1 -8
-4 -8 -11 0 -23 -34 -47 -58 -40 -13 3 -22 1 -22 -6 0 -6 -9 -11 -21 -11 -11
0 -18 4 -15 8 2 4 -18 18 -45 30 -27 13 -49 27 -49 32 0 6 -7 10 -15 10 -8 0
-15 6 -15 14 0 9 -9 12 -27 10 -16 -2 -22 -1 -15 2 21 10 13 22 -18 29 -16 4
-33 12 -37 18 -16 25 -50 37 -67 24 -16 -11 -15 -15 8 -47 38 -52 63 -101 71
-137 6 -30 4 -33 -17 -34 -13 -1 -39 -2 -58 -3 -19 -1 -53 6 -74 16 -40 18
-110 16 -122 -3 -3 -5 -9 -7 -14 -4 -4 3 -13 -2 -20 -10 -7 -8 -21 -15 -31
-15 -10 0 -20 -4 -23 -9 -7 -10 -59 -2 -67 11 -9 15 -229 -19 -250 -38 -16
-14 -18 -14 -28 5 -17 32 -13 62 19 129 17 35 30 70 30 77 0 28 -22 26 -51 -4
-16 -17 -34 -31 -39 -31 -6 0 -10 -7 -10 -15 0 -8 -9 -20 -20 -27 -11 -7 -20
-18 -20 -25 0 -7 -7 -13 -16 -13 -8 0 -12 -4 -9 -10 3 -5 -2 -10 -12 -11 -17
0 -17 -1 0 -7 16 -7 16 -9 2 -27 -9 -11 -14 -15 -11 -8 4 6 2 14 -4 18 -9 6
-15 -8 -11 -29 2 -10 -29 -35 -44 -36 -5 0 -3 5 5 10 8 5 10 10 5 10 -6 0 -17
-6 -23 -12 -7 -7 -33 -14 -57 -14 -47 -2 -75 -17 -75 -40 0 -10 -9 -12 -31 -7
-21 4 -34 1 -39 -7 -7 -11 -11 -11 -24 -1 -14 11 -16 11 -16 -3 0 -21 -51 -47
-58 -28 -5 17 -22 15 -22 -2 0 -8 -13 -19 -29 -24 -25 -9 -30 -8 -34 9 -7 28
-24 23 -42 -11 -10 -19 -20 -27 -30 -24 -8 4 -15 1 -15 -5 0 -19 -20 -12 -20
7 0 9 -7 26 -15 36 -8 11 -15 28 -15 37 0 10 -4 19 -10 21 -5 2 -11 17 -13 34
-2 17 -11 44 -19 60 -22 41 -38 96 -32 105 2 5 -4 26 -16 49 -11 22 -23 61
-26 87 -3 27 -10 59 -14 73 -10 27 -21 88 -25 135 -1 17 -3 30 -4 30 -8 0 -8
175 -1 240 25 204 27 230 19 236 -17 10 -5 64 23 108 23 34 26 46 16 52 -7 5
-16 9 -19 9 -10 0 -18 50 -9 50 5 0 6 10 4 23 -2 12 -2 17 1 11 4 -8 14 -4 30
10 19 17 21 22 9 29 -18 10 -18 33 1 41 8 3 15 12 15 21 0 8 9 15 20 15 16 0
20 -7 20 -35 0 -38 19 -48 27 -15 3 11 10 20 17 20 6 0 4 4 -3 9 -12 8 -9 13
17 28 17 10 34 24 37 31 3 7 0 10 -6 7 -5 -4 -16 -2 -24 5 -10 9 -19 5 -39
-17 -14 -15 -26 -22 -26 -15 0 7 -4 10 -10 7 -5 -3 -10 3 -10 14 0 16 6 21 25
21 18 0 25 5 25 19 0 11 5 21 11 23 7 2 13 29 13 63 1 33 7 70 14 82 7 12 9
28 6 37 -3 8 1 29 9 46 9 16 18 44 22 61 5 20 12 29 21 25 8 -3 21 7 31 25 10
16 29 33 43 36 14 3 30 10 37 15 7 5 17 7 23 3 6 -3 10 3 10 14 0 14 5 19 15
15 11 -4 13 -2 9 9 -3 8 -1 18 5 22 6 3 11 -1 11 -9 0 -9 4 -16 9 -16 10 0 24
38 22 62 -1 10 15 27 41 42 30 18 43 32 43 48 0 13 5 22 13 21 6 -2 11 2 10 9
-2 6 8 17 22 25 22 11 27 11 40 -5 15 -17 54 -27 44 -10 -8 13 16 38 38 38 10
0 21 -6 24 -14 4 -11 12 -13 31 -5 35 13 90 11 96 -3 4 -10 8 -10 15 1 8 10
20 11 58 3 27 -6 53 -8 58 -5 5 3 22 7 37 9 22 3 29 -1 29 -14 1 -13 5 -11 21
11 23 30 34 35 25 11z m-2076 -234 c0 -6 8 -5 20 2 28 18 35 3 11 -23 -12 -13
-21 -29 -21 -36 0 -7 -6 -13 -14 -13 -29 0 -64 -50 -71 -103 -5 -32 -20 -72
-41 -104 -18 -29 -29 -55 -24 -58 6 -3 10 -1 10 4 0 6 5 11 10 11 6 0 10 -9
10 -20 0 -11 -7 -20 -15 -20 -17 0 -18 -2 -9 -24 3 -9 14 -16 23 -16 12 0 16
-10 16 -43 0 -34 -3 -42 -17 -41 -10 1 -18 -4 -18 -11 0 -7 -6 -15 -12 -18
-20 -7 -50 13 -44 29 7 18 -1 18 -20 -1 -8 -8 -21 -12 -28 -9 -8 3 -20 -3 -27
-13 -17 -22 -39 -28 -39 -11 0 7 -14 22 -30 33 -16 11 -30 24 -30 28 0 5 -15
25 -34 45 -56 59 -81 117 -81 192 1 123 43 164 175 167 47 2 87 3 90 4 3 1 13
0 23 -1 9 -1 34 9 53 21 21 13 51 22 70 21 18 -1 36 3 39 8 8 13 25 13 25 0z
m1872 -1932 c90 -86 104 -95 128 -84 17 8 25 6 34 -5 6 -8 18 -13 27 -11 19 3
39 -43 39 -89 0 -22 5 -29 19 -29 11 0 23 -4 26 -10 10 -16 82 -12 99 6 9 8
21 12 26 9 6 -4 19 -4 28 0 25 11 102 14 108 4 3 -5 16 -6 30 -3 20 5 24 2 24
-14 0 -27 -54 -43 -106 -32 -37 9 -100 -8 -114 -30 -3 -5 -22 -4 -45 2 -59 16
-116 14 -257 -12 -108 -20 -129 -22 -143 -10 -11 9 -14 22 -10 38 3 13 1 30
-5 37 -8 10 -8 19 -1 33 7 13 8 44 2 86 -4 38 -4 69 1 72 5 3 4 12 -2 19 -17
21 7 64 36 65 6 0 32 -19 56 -42z m-544 -261 c2 -10 10 -17 18 -17 8 0 14 -4
14 -8 0 -5 11 -15 25 -22 13 -7 22 -17 19 -21 -2 -5 9 -21 26 -37 36 -34 36
-36 10 -89 -26 -55 -72 -73 -85 -33 -3 11 -13 20 -21 20 -8 0 -14 5 -14 11 0
5 -14 23 -31 38 -22 20 -27 30 -17 33 9 4 7 11 -10 26 -15 13 -19 23 -12 27 7
4 9 18 6 31 -4 14 -2 32 3 42 12 23 65 22 69 -1z m722 -154 c30 -8 61 -22 68
-31 6 -9 12 -11 12 -5 0 8 31 11 93 11 64 0 104 5 130 16 21 9 47 14 56 11 10
-3 30 -1 44 4 22 9 27 7 32 -10 10 -31 -41 -70 -132 -101 -68 -23 -91 -26
-178 -23 -54 2 -119 9 -143 16 -33 9 -49 9 -69 0 -21 -10 -33 -8 -72 11 -25
12 -55 30 -65 40 -11 10 -25 18 -32 18 -37 0 -24 47 14 53 62 9 191 4 242 -10z
m-270 -269 c0 -6 13 -11 29 -12 16 0 46 -5 67 -11 22 -6 59 -11 84 -11 81 -1
99 -5 120 -22 11 -10 27 -18 36 -18 9 0 14 -8 13 -17 -3 -31 1 -35 17 -18 9 9
19 13 23 9 3 -4 0 -9 -6 -11 -7 -3 -13 -11 -13 -19 0 -8 -6 -11 -15 -7 -9 3
-15 2 -13 -3 6 -23 -17 -56 -49 -69 -38 -16 -119 -13 -180 6 -18 6 -37 8 -43
4 -5 -3 -10 -1 -10 4 0 6 -7 11 -15 11 -8 0 -15 5 -15 10 0 6 -5 10 -11 10 -6
0 -17 6 -25 14 -7 8 -19 17 -26 19 -10 4 -10 8 -1 14 8 6 6 19 -8 51 -15 32
-17 47 -9 61 11 21 50 25 50 5z m-3015 -3101 c-5 -21 -10 -42 -11 -48 -2 -5
-11 -45 -21 -88 -23 -99 -36 -105 -46 -22 -2 11 -8 19 -15 17 -7 -1 -12 2 -12
6 0 5 -13 7 -30 6 -17 -1 -30 2 -30 7 0 5 -3 8 -7 8 -24 -4 -33 4 -31 29 2 27
34 78 46 76 4 -1 6 2 4 7 -3 13 62 11 76 -3 9 -9 12 -9 12 1 0 7 7 10 18 7 14
-5 22 1 31 20 16 36 25 23 16 -23z"/>
<path d="M401 5210 c-47 -11 -64 -44 -41 -80 7 -11 27 -15 79 -14 61 0 72 4
89 24 25 30 20 42 -24 63 -37 18 -51 19 -103 7z"/>
</g>
</svg>
